<?xml version="1.0" encoding="utf-8"?>
<!-- Uploaded to: SVG Repo, www.svgrepo.com, Generator: SVG Repo Mixer Tools -->
<svg version="1.1" id="Uploaded to svgrepo.com" xmlns="http://www.w3.org/2000/svg" xmlns:xlink="http://www.w3.org/1999/xlink" 
	 width="800px" height="800px" viewBox="0 0 64 64" xml:space="preserve">
<style type="text/css">
	.fandom_een{fill:#FF786E;}
	.fandom_twee{fill:#BE5652;}
	.fandom_twaalf{fill:#644638;}
	.fandom_dertien{fill:#AA9991;}
	.fandom_veertien{fill:#EFEAE0;}
	.fandom_twintig{fill:#FFFAFA;}
	.st0{fill:#6BC4D2;}
	.st1{fill:#508D9B;}
	.st2{fill:#4B322A;}
	.st3{fill:#FFC865;}
	.st4{fill:#BE9148;}
	.st5{fill:#8579A3;}
	.st6{fill:#685683;}
	.st7{fill:#4D4D4D;}
	.st8{fill:#3A3A3A;}
	.st9{fill:#808080;}
	.st10{fill:#CCCCCC;}
	.st11{fill:#666666;}
	.st12{fill:#018273;}
	.st13{fill:#00B3AA;}
</style>
<g>
	<g>
		<path class="fandom_een" d="M32,7C18.193,7,7,18.193,7,32h50C57,18.193,45.807,7,32,7z"/>
		<path class="fandom_twee" d="M32,57c13.807,0,25-11.193,25-25H7C7,45.807,18.193,57,32,57z"/>
	</g>
	<g>
		<path class="fandom_veertien" d="M31.268,49.525c0.611,0.007,7.192-1.97,8.433-2.713l3.429,0.102l3.033,6.651
			c0.512,1.427,1.211,1.773,2.556,0.989c1.09-0.635,3.058-1.707,3.272-3.034c0.091-0.559-1.4-4.493-1.573-5.097
			c0.581-0.055,1.156-0.108,1.716-0.153c0.508-0.041,0.738-0.495,0.543-0.946l-4.512-11.656
			c-2.035-5.863-11.521-13.961-16.826-14.858c-0.471-0.582-0.541-0.279-0.539-1.502c1.518-4.069-0.535-9.623-6.189-9.619
			c-10.203,0.007-12.433,12.066-9.525,20.386c0.085,6.42,8.377,15.981,11.011,16.927c0.539,0.959,1.215,1.945,1.973,2.752
			C28.07,47.755,29.349,49.196,31.268,49.525z"/>
		<path class="fandom_dertien" d="M52.677,45.326l-4.512-11.656C46.327,28.375,38.432,21.276,33,19.285V22c0,0.552-0.448,1-1,1
			h-4.725c-0.884,4.286,1.112,7.786,4.427,10.923c0,0,9.118,7.873,18.771,12.496c0.563-0.053,1.12-0.104,1.662-0.148
			C52.643,46.23,52.873,45.777,52.677,45.326z"/>
		<path class="fandom_twintig" d="M32,23h-9c-0.552,0-1-0.448-1-1v-5c0-0.552,0.448-1,1-1h9c0.552,0,1,0.448,1,1v5
			C33,22.552,32.552,23,32,23z"/>
		<path class="fandom_twaalf" d="M31.214,51.248c0.024,0.714-1.057,0.85-1.234,0.167c-0.149-0.575-0.782-0.652-1.407-0.646
			c0,0-1.075,3.377-1.355,3.783c-0.358,0.52-0.998,0.601-1.212,0c-0.134-0.378-0.237-0.762-0.332-1.148
			c-0.135,0.161-0.226,0.372-0.402,0.484c-0.937,0.596-1.345-0.441-1.345-0.441s-0.136-3.484,1.083-4.882
			c0.776-0.89,1.947-0.874,3.06-0.81c0,0,1.716,1.608,3.198,1.77L31.214,51.248z M27.835,17.096c0.261,0.446,0.929,0.343,1.073-0.14
			c0.152-0.511,0.15-1.316-0.27-1.717c-0.376-0.358-0.671-0.258-0.975-0.065l-0.449,0.297c-0.261,0.157-0.382,0.524-0.214,0.794
			C27.098,16.697,27.598,16.692,27.835,17.096z"/>
	</g>
</g>
</svg>